# Blender v2.79 (sub 0) OBJ File: 'test.blend'
# www.blender.org
o Cube
v 1.000000 0.192043 -1.000000
v 1.000000 0.192043 1.000000
v -1.000000 0.192043 1.000000
v -1.000000 0.192043 -1.000000
v 1.000000 1.000000 -0.999999
v 0.999999 1.000000 1.000001
v -1.000000 1.000000 1.000000
v -1.000000 1.000000 -1.000000
v 0.519412 0.192043 -1.000000
v 0.519412 0.192043 1.000000
v 0.519412 1.000000 -1.000000
v 0.519411 1.000000 1.000000
v 1.000000 1.000000 0.000001
v -1.000000 1.000000 -0.000000
v 0.519412 1.000000 0.000000
v 1.000000 1.000000 0.500001
v -0.240294 1.000000 -1.000000
v -0.240295 1.000000 1.000000
v -1.000000 1.000000 -0.500000
v 0.759706 1.000000 -1.000000
v 0.759705 1.000000 1.000000
v 0.519411 1.000000 0.500000
v 1.000000 1.000000 -0.499999
v -1.000000 1.000000 0.500000
v 0.519412 1.000000 -0.500000
v 0.759706 1.000000 0.000000
v -0.240294 1.000000 0.000000
v -0.240294 1.000000 -0.500000
v 0.759706 1.000000 -0.500000
v 0.759706 1.000000 0.500000
v -0.240294 1.000000 0.500000
v 0.519412 2.214216 0.000000
v 0.519411 2.214216 0.500000
v 0.519412 2.214216 -0.500000
v 0.759706 2.214216 0.000000
v 0.759706 2.214216 -0.500000
v 0.759706 2.214216 0.500000
v 0.759706 1.967248 -0.500000
v 0.759706 1.967248 0.000000
v 0.759706 1.967248 0.500000
v 0.519411 1.967248 0.500000
v 0.519412 1.967248 0.000000
v 0.519412 1.967248 -0.500000
v 0.759706 1.685184 0.000000
v 0.519411 1.685184 0.500000
v 0.519412 1.685184 -0.500000
v 0.759706 1.685184 -0.500000
v 0.759706 1.685184 0.500000
v 0.519412 1.685184 0.000000
v 1.463908 1.967248 -0.499999
v 1.463908 1.967248 0.000001
v 1.463908 1.967248 0.500001
v 1.463908 1.685184 0.000001
v 1.463908 1.685184 -0.499999
v 1.463908 1.685184 0.500001
v -1.000000 0.192043 -0.000000
v -1.466258 1.000000 0.500000
v -1.466258 1.000000 -0.000000
v -1.466258 1.000000 -0.500000
v -1.466258 0.192043 -0.000000
v -0.240294 0.192043 -1.000000
v -0.240294 0.192043 1.000000
v -0.240294 0.192043 -0.000000
v -1.000000 0.192043 -0.500000
v -0.240294 0.192043 -0.500000
v -1.000000 0.192043 0.500000
v -0.240294 0.192043 0.500000
v -0.620147 0.192043 -1.000000
v -0.620147 0.192043 1.000000
v -0.620147 0.192043 -0.000000
v -0.620147 0.192043 -0.500000
v -0.620147 0.192043 0.500000
v -0.620147 0.192043 0.250000
v -0.620147 0.192043 -0.750000
v -0.620147 0.192043 -0.250000
v -0.620147 0.192043 0.750000
v -1.000000 0.192043 -0.750000
v -1.000000 0.192043 0.250000
v -1.000000 0.192043 -0.250000
v -1.000000 0.192043 0.750000
v -0.947335 -0.163368 -0.250000
v -0.947335 -0.163368 -0.500000
v -0.672811 -0.425903 -0.500000
v -0.947336 -0.163368 0.750000
v -0.947336 -0.163368 0.500000
v -0.672811 -0.425903 0.500000
v -0.672811 -0.425903 -0.250000
v -0.672812 -0.425903 0.750000
v -0.672811 -0.425903 0.250000
v -0.672811 -0.425903 -0.750000
v -0.947335 -0.163368 -0.750000
v -0.947336 -0.163368 0.250000
v -1.235203 -0.464381 -0.250000
v -1.235203 -0.464381 -0.500000
v -0.960679 -0.726916 -0.500000
v -1.235203 -0.464381 0.750000
v -1.235203 -0.464381 0.500000
v -0.960679 -0.726916 0.500000
v -0.960679 -0.726916 -0.250000
v -0.960679 -0.726916 0.750000
v -0.960679 -0.726916 0.250000
v -0.960678 -0.726916 -0.750000
v -1.235203 -0.464381 -0.750000
v -1.235203 -0.464381 0.250000
vn 0.0000 -1.0000 0.0000
vn 0.0000 1.0000 -0.0000
vn 1.0000 0.0000 0.0000
vn 0.0000 -0.0000 1.0000
vn 0.0000 0.0000 -1.0000
vn -1.0000 0.0000 -0.0000
vn -0.0000 -0.5262 0.8503
vn 0.0000 -0.5262 -0.8503
vn 0.9964 -0.0849 0.0000
vn -0.7227 0.6911 -0.0000
vn 0.7227 -0.6912 0.0000
vn -0.9892 -0.1466 0.0000
vn -0.6911 -0.7227 0.0000
vn 0.7227 -0.6911 0.0000
vn -0.7227 0.6912 0.0000
s off
f 69//1 80//1 76//1
f 24//2 18//2 31//2
f 16//3 6//3 2//3
f 18//4 69//4 62//4
f 19//2 58//2 14//2
f 17//5 9//5 61//5
f 9//5 11//5 20//5
f 21//4 12//4 10//4
f 22//2 21//2 30//2
f 1//1 10//1 9//1
f 40//4 33//4 41//4
f 19//2 27//2 28//2
f 28//2 15//2 25//2
f 17//2 25//2 11//2
f 17//2 19//2 28//2
f 29//2 13//2 23//2
f 20//2 23//2 5//2
f 11//2 29//2 20//2
f 30//2 6//2 16//2
f 26//2 16//2 13//2
f 38//3 35//3 39//3
f 22//2 18//2 12//2
f 15//2 31//2 22//2
f 14//2 31//2 27//2
f 34//2 35//2 36//2
f 32//2 37//2 35//2
f 39//3 37//3 40//3
f 42//6 34//6 43//6
f 43//5 36//5 38//5
f 41//6 32//6 42//6
f 45//6 42//6 49//6
f 46//5 38//5 47//5
f 49//6 43//6 46//6
f 38//5 54//5 47//5
f 48//4 52//4 40//4
f 48//4 41//4 45//4
f 30//4 45//4 22//4
f 29//3 44//3 26//3
f 26//3 48//3 30//3
f 15//6 46//6 25//6
f 25//5 47//5 29//5
f 22//6 49//6 15//6
f 53//3 52//3 55//3
f 54//3 51//3 53//3
f 44//1 55//1 48//1
f 40//2 51//2 39//2
f 39//2 50//2 38//2
f 47//1 53//1 44//1
f 14//2 57//2 24//2
f 3//6 7//6 24//6
f 19//6 77//6 64//6
f 60//6 58//6 59//6
f 60//6 57//6 58//6
f 24//7 60//7 56//7
f 56//8 59//8 19//8
f 10//1 67//1 63//1
f 8//6 4//6 19//6
f 24//6 78//6 66//6
f 70//1 79//1 75//1
f 75//9 83//9 71//9
f 74//5 91//5 77//5
f 67//1 72//1 73//1
f 65//1 71//1 74//1
f 63//1 70//1 75//1
f 62//1 69//1 76//1
f 74//1 4//1 68//1
f 71//9 90//9 74//9
f 70//1 78//1 56//1
f 76//4 84//4 88//4
f 82//10 93//10 81//10
f 90//5 103//5 91//5
f 84//4 100//4 88//4
f 86//11 101//11 89//11
f 66//12 84//12 80//12
f 78//12 85//12 66//12
f 64//12 81//12 79//12
f 75//4 81//4 87//4
f 72//9 88//9 86//9
f 73//5 92//5 78//5
f 72//9 89//9 73//9
f 77//12 82//12 64//12
f 102//13 94//13 103//13
f 98//13 104//13 101//13
f 99//13 94//13 95//13
f 98//13 96//13 97//13
f 83//14 102//14 90//14
f 87//14 95//14 83//14
f 81//4 99//4 87//4
f 91//10 94//10 82//10
f 88//14 98//14 86//14
f 92//5 101//5 104//5
f 85//15 96//15 84//15
f 92//10 97//10 85//10
f 69//1 3//1 80//1
f 24//2 7//2 18//2
f 2//3 1//3 13//3
f 1//3 5//3 23//3
f 23//3 13//3 1//3
f 13//3 16//3 2//3
f 62//4 10//4 12//4
f 18//4 7//4 69//4
f 7//4 3//4 69//4
f 62//4 12//4 18//4
f 19//2 59//2 58//2
f 17//5 11//5 9//5
f 61//5 68//5 17//5
f 68//5 4//5 8//5
f 17//5 68//5 8//5
f 20//5 5//5 1//5
f 1//5 9//5 20//5
f 10//4 2//4 21//4
f 2//4 6//4 21//4
f 22//2 12//2 21//2
f 1//1 2//1 10//1
f 40//4 37//4 33//4
f 19//2 14//2 27//2
f 28//2 27//2 15//2
f 17//2 28//2 25//2
f 17//2 8//2 19//2
f 29//2 26//2 13//2
f 20//2 29//2 23//2
f 11//2 25//2 29//2
f 30//2 21//2 6//2
f 26//2 30//2 16//2
f 38//3 36//3 35//3
f 22//2 31//2 18//2
f 15//2 27//2 31//2
f 14//2 24//2 31//2
f 34//2 32//2 35//2
f 32//2 33//2 37//2
f 39//3 35//3 37//3
f 42//6 32//6 34//6
f 43//5 34//5 36//5
f 41//6 33//6 32//6
f 45//6 41//6 42//6
f 46//5 43//5 38//5
f 49//6 42//6 43//6
f 38//5 50//5 54//5
f 48//4 55//4 52//4
f 48//4 40//4 41//4
f 30//4 48//4 45//4
f 29//3 47//3 44//3
f 26//3 44//3 48//3
f 15//6 49//6 46//6
f 25//5 46//5 47//5
f 22//6 45//6 49//6
f 53//3 51//3 52//3
f 54//3 50//3 51//3
f 44//1 53//1 55//1
f 40//2 52//2 51//2
f 39//2 51//2 50//2
f 47//1 54//1 53//1
f 14//2 58//2 57//2
f 19//6 4//6 77//6
f 64//6 79//6 19//6
f 79//6 56//6 19//6
f 24//7 57//7 60//7
f 56//8 60//8 59//8
f 61//1 9//1 65//1
f 9//1 10//1 63//1
f 65//1 9//1 63//1
f 10//1 62//1 67//1
f 24//6 56//6 78//6
f 66//6 80//6 24//6
f 80//6 3//6 24//6
f 70//1 56//1 79//1
f 75//9 87//9 83//9
f 74//5 90//5 91//5
f 70//1 63//1 73//1
f 63//1 67//1 73//1
f 68//1 61//1 74//1
f 61//1 65//1 74//1
f 71//1 65//1 75//1
f 65//1 63//1 75//1
f 72//1 67//1 76//1
f 67//1 62//1 76//1
f 74//1 77//1 4//1
f 71//9 83//9 90//9
f 70//1 73//1 78//1
f 76//4 80//4 84//4
f 82//10 94//10 93//10
f 90//5 102//5 103//5
f 84//4 96//4 100//4
f 86//14 98//14 101//14
f 66//12 85//12 84//12
f 78//12 92//12 85//12
f 64//12 82//12 81//12
f 75//4 79//4 81//4
f 72//9 76//9 88//9
f 73//5 89//5 92//5
f 72//9 86//9 89//9
f 77//12 91//12 82//12
f 102//13 95//13 94//13
f 98//13 97//13 104//13
f 99//13 93//13 94//13
f 98//13 100//13 96//13
f 83//14 95//14 102//14
f 87//14 99//14 95//14
f 81//4 93//4 99//4
f 91//10 103//10 94//10
f 88//11 100//11 98//11
f 92//5 89//5 101//5
f 85//10 97//10 96//10
f 92//10 104//10 97//10
